<?xml version="1.0" encoding="utf-8"?>
<!-- Generator: Adobe Illustrator 24.0.0, SVG Export Plug-In . SVG Version: 6.00 Build 0)  -->
<svg version="1.1"
	 id="svg2" xmlns:cc="http://creativecommons.org/ns#" xmlns:dc="http://purl.org/dc/elements/1.1/" xmlns:rdf="http://www.w3.org/1999/02/22-rdf-syntax-ns#" xmlns:svg="http://www.w3.org/2000/svg"
	 xmlns="http://www.w3.org/2000/svg" xmlns:xlink="http://www.w3.org/1999/xlink" x="0px" y="0px" viewBox="0 0 436.9 229.3"
	 style="enable-background:new 0 0 436.9 229.3;" xml:space="preserve">
<style type="text/css">
	.st0{fill-rule:evenodd;clip-rule:evenodd;fill:#66CEF5;}
	.st1{fill-rule:evenodd;clip-rule:evenodd;fill:#40C1F3;}
	.st2{fill-rule:evenodd;clip-rule:evenodd;fill:#00ADEF;}
</style>
<g id="g10" transform="matrix(1.3333333,0,0,-1.3333333,0,333.33333)">
	<g id="g12" transform="scale(0.1)">
		<path id="path14" class="st0" d="M1297,2308.8l591.8-241.7V2248L1297,2489.7c-43.2,17.7-92.5,12.3-130.9-14.5l-197.3-137.2v-180.9
			l197.3,137.3C1204.5,2321.1,1253.8,2326.5,1297,2308.8L1297,2308.8z M2755.2,926v284.4l-171,128.3c-30.3,24.6-72,29.7-107.2,12.8
			l-505.7-242.4v-107.4c-27.3,1.1-54.8,2.1-82.5,3v104.6L1297,1351.2c-43.2,17.7-92.5,12.1-130.9-14.5l-197.3-137.3v-216
			c-27.5-2.2-54.7-4.6-81.6-7.1v231.9l-214.5,65.3c-28.3,8.5-58.9,4.8-84.2-10.3l-100.8-60.5V926C289.1,865,177.7,852.9,0,780.6
			c422.5,131.2,2854.3,131.2,3276.8,0C3117.8,846.2,2954.1,876.2,2755.2,926z M2584.2,1416.8l171-128.4v218.1l-171,128.4
			c-30.3,24.7-72,29.6-107.2,12.7l-505.7-242.4v-218.1l505.7,242.5C2512.2,1446.5,2553.9,1441.4,2584.2,1416.8L2584.2,1416.8z
			 M2584.2,1712.9l171-128.3v215l-171,128.4c-30.3,24.6-72,29.6-107.2,12.7l-505.7-242.4v-215.1l505.7,242.4
			C2512.2,1742.6,2553.9,1737.6,2584.2,1712.9L2584.2,1712.9z M2584.2,2006l171-128.3v210.6l-171,128.4
			c-30.3,24.7-72,29.7-107.2,12.7l-505.7-242.4v-210.7l505.7,242.4C2512.2,2035.7,2553.9,2030.7,2584.2,2006z M672.8,1350.3
			l214.5-65.3v225.9l-214.5,65.3c-28.3,8.5-58.9,4.8-84.2-10.3l-100.8-60.6v-225.8l100.8,60.5
			C613.9,1355.1,644.5,1358.9,672.8,1350.3z M672.8,1653l214.5-65.3v229.7l-214.5,65.3c-28.3,8.7-58.9,4.8-84.2-10.3l-100.8-60.6
			v-229.7l100.8,60.5C613.9,1657.8,644.5,1661.7,672.8,1653L672.8,1653z M672.8,1959.5l214.5-65.3v182.2l-214.5,65.3
			c-28.3,8.6-58.9,4.8-84.2-10.4l-100.8-60.5v-182.2l100.8,60.6C613.9,1964.3,644.5,1968.2,672.8,1959.5L672.8,1959.5z M1297,1429.3
			l591.8-241.8v218.1L1297,1647.3c-43.2,17.7-92.5,12.3-130.9-14.4l-197.3-137.3v-218.1l197.3,137.3
			C1204.5,1441.4,1253.8,1447,1297,1429.3L1297,1429.3z M1297,1725.3l591.8-241.7v228.4L1297,1953.9
			c-43.2,17.7-92.5,12.2-130.9-14.5l-197.2-137.3v-228.4l197.3,137.3C1204.5,1737.6,1253.8,1743,1297,1725.3L1297,1725.3z
			 M1297,2031.9l591.8-241.7V1989L1297,2230.7c-43.2,17.7-92.5,12.3-130.9-14.4L968.9,2079v-198.8l197.3,137.3
			C1204.5,2044.1,1253.8,2049.7,1297,2031.9"/>
		<path id="path16" class="st1" d="M524.5,847.9c24.8,149.3,65.2,293.2,119.8,430c9.6-0.2,19.2-1.7,28.5-4.5l214.5-65.3V976.3
			c26.9,2.5,54.1,4.9,81.6,7.1v216l197.3,137.3c38.4,26.7,87.7,32.2,130.9,14.5l591.8-241.8v-104.6c27.7-0.9,55.2-1.9,82.5-3v107.4
			l505.7,242.4c35.2,16.9,77,11.8,107.2-12.8l171-128.3V926c198.9-49.8,362.6-79.9,521.6-145.5C2946.8,883,1391.3,905.5,524.5,847.9
			L524.5,847.9z M674.6,1349.7c29.8,67.1,62.8,132.5,99.2,195.7l113.5-34.5V1285L674.6,1349.7z M812.9,1610.3
			c23.6,37.8,48.4,74.8,74.3,111v-133.6L812.9,1610.3z M1094.4,1967.6c84,85.7,175.3,164.1,273,234.4l521.4-213v-198.8L1297,2031.9
			c-43.2,17.8-92.5,12.3-130.9-14.4L1094.4,1967.6z M1438.6,2250.9c58.5,38.5,119.1,74.2,181.5,106.8l268.7-109.7v-181
			L1438.6,2250.9z M2584.2,1416.8l171-128.4v218.1l-171,128.4c-30.3,24.7-72,29.6-107.2,12.7l-505.7-242.4v-218.1l505.7,242.5
			C2512.2,1446.5,2553.9,1441.4,2584.2,1416.8z M2584.2,1712.9l171-128.3v215l-171,128.4c-30.3,24.6-72,29.6-107.2,12.7
			l-505.7-242.4v-215.1l505.7,242.4C2512.2,1742.6,2553.9,1737.6,2584.2,1712.9L2584.2,1712.9z M2584.2,2006l171-128.3v210.6
			l-171,128.4c-30.3,24.7-72,29.7-107.2,12.7l-505.7-242.4v-210.7l505.7,242.4C2512.2,2035.7,2553.9,2030.7,2584.2,2006L2584.2,2006
			z M1297,1429.3l591.8-241.8v218.1L1297,1647.3c-43.2,17.7-92.5,12.3-130.9-14.4l-197.3-137.3v-218.1l197.3,137.3
			C1204.5,1441.4,1253.8,1447,1297,1429.3L1297,1429.3z M1297,1725.3l591.8-241.7v228.4L1297,1953.9
			c-43.2,17.7-92.5,12.2-130.9-14.5l-197.2-137.3v-228.4l197.3,137.3C1204.5,1737.6,1253.8,1743,1297,1725.3"/>
		<path id="path18" class="st2" d="M1635.1,879c54.4,91.9,117.5,178,188.2,257.1l65.4-26.7v-104.6c27.7-0.9,55.2-1.9,82.5-3v107.4
			l505.7,242.4c35.2,16.9,77,11.8,107.2-12.8l171-128.3V926c198.9-49.8,362.6-79.9,521.6-145.5
			C3065.2,846.3,2349.8,879.1,1635.1,879L1635.1,879z M1876.2,1192.6c4.2,4.3,8.3,8.6,12.6,12.8v-17.9L1876.2,1192.6z
			 M1971.2,1282.1c179.8,156.3,394.2,273.8,630.1,339.9l153.9-115.6v-218.1l-171,128.4c-30.3,24.6-72,29.7-107.2,12.8l-505.7-242.5
			V1282.1z M2679,1641.7c25.2,5.7,50.6,10.9,76.2,15.5v-72.6L2679,1641.7"/>
	</g>
</g>
</svg>
